<svg xmlns="http://www.w3.org/2000/svg" viewBox="0 0 100 100">
  <rect width="100" height="100" fill="#050505"/>
  <path d="M38.37714285714286 15.131428571428572Q37.040000000000006 15.131428571428572 36.268571428571434 15.337142857142858Q35.49714285714286 15.542857142857144 35.034285714285716 16.57142857142857Q34.57142857142857 17.599999999999994 34.417142857142856 19.759999999999998Q34.26285714285714 21.92 34.26285714285714 25.72571428571429V68.2057142857143H36.114285714285714Q36.114285714285714 71.49714285714286 37.19428571428571 74.48Q38.27428571428572 77.46285714285715 40.12571428571429 79.77714285714285Q41.97714285714286 82.09142857142857 44.44571428571429 83.47999999999999Q46.91428571428571 84.86857142857143 49.691428571428574 84.86857142857143Q53.49714285714286 84.86857142857143 57.097142857142856 82.09142857142857Q60.69714285714286 79.31428571428572 63.52571428571429 74.58285714285714Q66.35428571428571 69.85142857142857 68.10285714285715 63.47428571428571Q69.85142857142857 57.097142857142856 69.85142857142857 50.0Q69.85142857142857 42.902857142857144 68.41142857142857 36.52571428571429Q66.97142857142858 30.14857142857143 64.29714285714286 25.417142857142856Q61.62285714285714 20.685714285714283 57.86857142857143 17.908571428571427Q54.114285714285714 15.131428571428572 49.48571428571429 15.131428571428572ZM26.034285714285716 25.72571428571429Q26.034285714285716 21.92 25.931428571428572 19.81142857142857Q25.82857142857143 17.70285714285714 25.417142857142856 16.674285714285716Q25.005714285714287 15.645714285714291 24.182857142857145 15.388571428571431Q23.360000000000003 15.131428571428572 21.92 15.028571428571425V14.0H49.48571428571429Q55.55428571428572 14.0 60.80000000000001 16.777142857142856Q66.0457142857143 19.55428571428571 69.90285714285714 24.439999999999998Q73.75999999999999 29.325714285714284 75.91999999999999 35.85714285714286Q78.08 42.38857142857143 78.08 50.0Q78.08 57.50857142857143 75.86857142857143 64.09142857142857Q73.65714285714286 70.67428571428572 69.80000000000001 75.56Q65.94285714285715 80.44571428571429 60.74857142857144 83.22285714285715Q55.55428571428572 86.0 49.691428571428574 86.0Q46.70857142857143 86.0 44.08571428571429 84.56Q41.462857142857146 83.12 39.50857142857143 80.80571428571429Q37.55428571428571 78.49142857142857 36.42285714285714 75.45714285714286Q35.291428571428575 72.42285714285714 35.08571428571429 69.23428571428572H34.26285714285714V74.27428571428571Q34.26285714285714 78.08 34.36571428571429 80.18857142857144Q34.46857142857143 82.29714285714286 34.88 83.32571428571428Q35.291428571428575 84.35428571428571 36.114285714285714 84.61142857142858Q36.93714285714286 84.86857142857143 38.37714285714286 84.97142857142858V86.0H21.92V84.97142857142858Q23.360000000000003 84.86857142857143 24.182857142857145 84.61142857142858Q25.005714285714287 84.35428571428571 25.417142857142856 83.32571428571428Q25.82857142857143 82.29714285714286 25.931428571428572 80.18857142857144Q26.034285714285716 78.08 26.034285714285716 74.27428571428571Z" fill="#FCFCFA"/>
</svg>
